<svg width="24" height="24" viewBox="0 0 24 24" fill="none" xmlns="http://www.w3.org/2000/svg">
<path d="M20 2.75C20.9662 2.75 21.75 3.53379 21.75 4.5V7.03223C21.7499 7.55227 21.5186 8.0439 21.1201 8.37598L14.75 13.6846V17.8818C14.75 18.5448 14.3757 19.1513 13.7822 19.4473L11.0586 20.8086C10.2286 21.2236 9.25028 20.6213 9.25 19.6914V13.6846L2.87988 8.37598C2.48114 8.04365 2.25007 7.55086 2.25 7.03223V4.5C2.25 3.53379 3.03379 2.75 4 2.75H20ZM5.07129 8.25L10.4805 12.7568C10.6513 12.8993 10.75 13.1105 10.75 13.333V19.2861L13.1113 18.1055C13.1955 18.0635 13.25 17.9767 13.25 17.8818V13.333C13.25 13.1105 13.3487 12.8993 13.5195 12.7568L18.9287 8.25H5.07129ZM4 4.25C3.86221 4.25 3.75 4.36221 3.75 4.5V6.75H20.25V4.5C20.25 4.36221 20.1378 4.25 20 4.25H4Z" fill="#F5F5F5"/>
</svg>
