<svg width="24" height="24" viewBox="0 0 24 24" fill="none" xmlns="http://www.w3.org/2000/svg">
<path d="M15.457 2.25C16.1871 2.25001 16.8853 2.54011 17.4004 3.05371L19.9443 5.59766C20.4589 6.11358 20.75 6.81248 20.75 7.54297V15.7139C20.75 17.2331 19.5192 18.4639 18 18.4639H17.75V19C17.75 20.5192 16.5192 21.75 15 21.75H6C4.48079 21.75 3.25 20.5192 3.25 19V8C3.25 6.48079 4.48079 5.25 6 5.25H6.25V5C6.25 3.48079 7.48079 2.25 9 2.25H15.457ZM6 6.75C5.30921 6.75 4.75 7.30921 4.75 8V19C4.75 19.6908 5.30921 20.25 6 20.25H15C15.6908 20.25 16.25 19.6908 16.25 19V18.4639H9C7.48079 18.4639 6.25 17.2331 6.25 15.7139V6.75H6ZM9 3.75C8.30921 3.75 7.75 4.30921 7.75 5V15.7139C7.75 16.4047 8.30921 16.9639 9 16.9639H18C18.6908 16.9639 19.25 16.4047 19.25 15.7139V8.75H16C15.0338 8.75 14.25 7.96621 14.25 7V3.75H9ZM15.75 7C15.75 7.13779 15.8622 7.25 16 7.25H19.2148C19.1613 7.0282 19.0474 6.82334 18.8828 6.6582L16.3418 4.11621C16.1774 3.95242 15.972 3.83872 15.75 3.78516V7Z" fill="#737373"/>
</svg>
