<svg width="24" height="24" viewBox="0 0 24 24" fill="none" xmlns="http://www.w3.org/2000/svg">
<path d="M15.0303 2.25C16.5429 2.25015 17.75 3.4915 17.75 5V11C17.75 11.4142 17.4142 11.75 17 11.75C16.5858 11.75 16.25 11.4142 16.25 11V5C16.25 4.29869 15.6934 3.75015 15.0303 3.75H4.96973C4.30661 3.75015 3.75 4.29869 3.75 5V19C3.75 19.7013 4.30661 20.2498 4.96973 20.25H9.89258C10.3068 20.25 10.6426 20.5858 10.6426 21C10.6426 21.4142 10.3068 21.75 9.89258 21.75H4.96973C3.45709 21.7499 2.25 20.5085 2.25 19V5C2.25 3.4915 3.45709 2.25015 4.96973 2.25H15.0303ZM18.7627 12.1768C19.4456 11.4939 20.5544 11.4939 21.2373 12.1768L21.8223 12.7617C22.5072 13.4452 22.5067 14.5538 21.8232 15.2373L15.5303 21.5303C15.3897 21.6709 15.1989 21.75 15 21.75H13C12.5858 21.75 12.25 21.4143 12.25 21V19C12.25 18.801 12.329 18.6104 12.4697 18.4697L18.7627 12.1768ZM20.1768 13.2373C20.0797 13.1402 19.9203 13.1402 19.8232 13.2373L13.75 19.3105V20.25H14.6895L20.7627 14.1768C20.8611 14.0783 20.8603 13.9207 20.7637 13.8242L20.1768 13.2373ZM9.88965 15.25C10.3038 15.25 10.6396 15.5858 10.6396 16C10.6396 16.4142 10.3038 16.75 9.88965 16.75H6C5.58579 16.75 5.25 16.4142 5.25 16C5.25 15.5858 5.58579 15.25 6 15.25H9.88965ZM12.8496 12.25C13.2638 12.25 13.5996 12.5858 13.5996 13C13.5996 13.4142 13.2638 13.75 12.8496 13.75H5.9502C5.53599 13.75 5.2002 13.4142 5.2002 13C5.2002 12.5858 5.53599 12.25 5.9502 12.25H12.8496ZM7.5 5.25C8.74221 5.25 9.75 6.25779 9.75 7.5C9.75 8.74221 8.74221 9.75 7.5 9.75H6C5.58579 9.75 5.25 9.41421 5.25 9V6C5.25 5.58579 5.58579 5.25 6 5.25H7.5ZM6.75 6.75V8.25H7.5C7.91379 8.25 8.25 7.91379 8.25 7.5C8.25 7.08621 7.91379 6.75 7.5 6.75H6.75Z" fill="#F5F5F5"/>
</svg>
